<svg width="177" height="40" viewBox="0 0 177 40" fill="none" xmlns="http://www.w3.org/2000/svg">
<path d="M14 30.5C14 29.6957 13.8189 28.8992 13.4672 28.1561C13.1154 27.4129 12.5998 26.7377 11.9497 26.169C11.2997 25.6002 10.5281 25.149 9.67878 24.8412C8.8295 24.5334 7.91925 24.375 7 24.375C6.08075 24.375 5.17049 24.5334 4.32122 24.8412C3.47194 25.149 2.70026 25.6002 2.05025 26.169C1.40024 26.7377 0.884626 27.4129 0.532843 28.1561C0.18106 28.8992 -8.03636e-08 29.6957 0 30.5L7 30.5H14Z" fill="#FFDC87"/>
<rect x="5.25" y="15.625" width="3.5" height="12.25" fill="#FFDC87"/>
<path d="M14 11.25C14 12.2842 13.8189 13.3082 13.4672 14.2636C13.1154 15.2191 12.5998 16.0872 11.9497 16.8185C11.2997 17.5497 10.5281 18.1298 9.67878 18.5256C8.8295 18.9213 7.91925 19.125 7 19.125C6.08075 19.125 5.17049 18.9213 4.32122 18.5256C3.47194 18.1298 2.70026 17.5497 2.05025 16.8185C1.40024 16.0872 0.884626 15.2191 0.532843 14.2636C0.18106 13.3082 -8.03636e-08 12.2842 0 11.25L7 11.25H14Z" fill="#FFDC87"/>
<path d="M29.1793 29.312C27.446 29.312 25.938 28.9307 24.6553 28.168C23.3727 27.388 22.376 26.3047 21.6653 24.918C20.9547 23.514 20.5993 21.8847 20.5993 20.03C20.5993 18.158 20.9633 16.5113 21.6913 15.09C22.4193 13.6513 23.468 12.5247 24.8373 11.71C26.2067 10.8953 27.8447 10.488 29.7513 10.488C31.8833 10.488 33.6513 10.9993 35.0553 12.022C36.4767 13.0447 37.3953 14.466 37.8113 16.286H33.8853C33.6253 15.4887 33.14 14.8647 32.4293 14.414C31.736 13.946 30.8347 13.712 29.7253 13.712C28.5467 13.712 27.5413 13.972 26.7093 14.492C25.8773 15.012 25.2447 15.74 24.8113 16.676C24.378 17.612 24.1613 18.73 24.1613 20.03C24.1613 21.3473 24.378 22.4653 24.8113 23.384C25.2447 24.3027 25.86 25.0047 26.6573 25.49C27.472 25.958 28.4253 26.192 29.5173 26.192C31.112 26.192 32.3167 25.7673 33.1313 24.918C33.9633 24.0513 34.4573 22.9333 34.6133 21.564H30.1413V18.938H38.1493V29H34.8993L34.6393 26.686C34.258 27.258 33.8073 27.7433 33.2873 28.142C32.7847 28.5233 32.1953 28.8093 31.5193 29C30.8433 29.208 30.0633 29.312 29.1793 29.312ZM41.3556 29V10.28H44.8656V29H41.3556ZM54.4753 29.312C53.2273 29.312 52.1006 29.026 51.0953 28.454C50.1073 27.8647 49.3186 27.0587 48.7293 26.036C48.1573 24.996 47.8713 23.8087 47.8713 22.474C47.8713 21.1047 48.1573 19.9087 48.7293 18.886C49.3186 17.846 50.116 17.04 51.1213 16.468C52.1266 15.8787 53.2533 15.584 54.5013 15.584C55.7666 15.584 56.8933 15.8787 57.8813 16.468C58.8866 17.04 59.6753 17.846 60.2473 18.886C60.8366 19.9087 61.1313 21.096 61.1313 22.448C61.1313 23.8 60.8366 24.996 60.2473 26.036C59.6753 27.0587 58.8866 27.8647 57.8813 28.454C56.876 29.026 55.7406 29.312 54.4753 29.312ZM54.4753 26.27C55.0646 26.27 55.5846 26.1313 56.0353 25.854C56.5033 25.5767 56.8673 25.152 57.1273 24.58C57.4046 24.008 57.5433 23.2973 57.5433 22.448C57.5433 21.5987 57.4046 20.8967 57.1273 20.342C56.8673 19.77 56.5033 19.3453 56.0353 19.068C55.5846 18.7733 55.0733 18.626 54.5013 18.626C53.9466 18.626 53.4353 18.7733 52.9673 19.068C52.4993 19.3453 52.1266 19.77 51.8493 20.342C51.5893 20.8967 51.4593 21.5987 51.4593 22.448C51.4593 23.2973 51.5893 24.008 51.8493 24.58C52.1266 25.152 52.4906 25.5767 52.9413 25.854C53.4093 26.1313 53.9206 26.27 54.4753 26.27ZM64.1564 29V15.896H67.2764L67.6144 18.314C67.9264 17.742 68.3164 17.2567 68.7844 16.858C69.2698 16.4593 69.8158 16.1473 70.4224 15.922C71.0464 15.6967 71.7311 15.584 72.4764 15.584V19.302H71.2804C70.7604 19.302 70.2751 19.3627 69.8244 19.484C69.3911 19.6053 69.0098 19.8047 68.6804 20.082C68.3511 20.342 68.0998 20.706 67.9264 21.174C67.7531 21.642 67.6664 22.2313 67.6664 22.942V29H64.1564ZM76.4591 34.72L79.6311 27.544H78.8511L73.5991 15.896H77.4211L81.1651 24.346L84.5451 15.896H88.2631L80.1771 34.72H76.4591ZM102.031 29V10.8H105.541V29H102.031ZM90.5645 29V10.8H94.0745V29H90.5645ZM93.5805 21.122V18.288H102.629V21.122H93.5805ZM113.935 29.312C112.878 29.312 111.968 29.0953 111.205 28.662C110.46 28.2113 109.888 27.5613 109.489 26.712C109.09 25.8453 108.891 24.7793 108.891 23.514V15.896H112.401V23.15C112.401 24.2073 112.618 25.0047 113.051 25.542C113.502 26.0793 114.186 26.348 115.105 26.348C115.694 26.348 116.214 26.218 116.665 25.958C117.116 25.6807 117.471 25.2907 117.731 24.788C118.008 24.268 118.147 23.6353 118.147 22.89V15.896H121.631V29H118.563L118.277 26.868C117.896 27.6133 117.332 28.2113 116.587 28.662C115.842 29.0953 114.958 29.312 113.935 29.312ZM125.069 29V15.896H128.163L128.423 18.028C128.821 17.3 129.385 16.7107 130.113 16.26C130.858 15.8093 131.742 15.584 132.765 15.584C133.857 15.584 134.775 15.8093 135.521 16.26C136.266 16.7107 136.829 17.3693 137.211 18.236C137.609 19.1027 137.809 20.1687 137.809 21.434V29H134.325V21.772C134.325 20.732 134.099 19.9347 133.649 19.38C133.215 18.8253 132.539 18.548 131.621 18.548C131.031 18.548 130.503 18.6867 130.035 18.964C129.584 19.2413 129.229 19.64 128.969 20.16C128.709 20.6627 128.579 21.278 128.579 22.006V29H125.069ZM147.017 29C146.099 29 145.293 28.8613 144.599 28.584C143.923 28.2893 143.395 27.8127 143.013 27.154C142.632 26.478 142.441 25.5593 142.441 24.398V18.834H140.205V15.896H142.441L142.831 12.334H145.951V15.896H149.409V18.834H145.951V24.45C145.951 25.0393 146.081 25.4467 146.341 25.672C146.601 25.8973 147.043 26.01 147.667 26.01H149.383V29H147.017ZM158.325 29.312C157.008 29.312 155.838 29.0347 154.815 28.48C153.81 27.908 153.021 27.1193 152.449 26.114C151.895 25.0913 151.617 23.9127 151.617 22.578C151.617 21.2087 151.895 20.004 152.449 18.964C153.021 17.9067 153.81 17.0833 154.815 16.494C155.821 15.8873 156.991 15.584 158.325 15.584C159.625 15.584 160.761 15.87 161.731 16.442C162.702 17.014 163.456 17.7853 163.993 18.756C164.531 19.7267 164.799 20.8273 164.799 22.058C164.799 22.2313 164.799 22.4307 164.799 22.656C164.799 22.864 164.782 23.0807 164.747 23.306H154.113V21.174H161.263C161.211 20.3247 160.908 19.6573 160.353 19.172C159.816 18.6867 159.14 18.444 158.325 18.444C157.736 18.444 157.19 18.5827 156.687 18.86C156.185 19.12 155.786 19.5273 155.491 20.082C155.214 20.6367 155.075 21.3387 155.075 22.188V22.942C155.075 23.6527 155.205 24.2767 155.465 24.814C155.743 25.334 156.124 25.7413 156.609 26.036C157.095 26.3133 157.658 26.452 158.299 26.452C158.941 26.452 159.469 26.3133 159.885 26.036C160.319 25.7587 160.639 25.4033 160.847 24.97H164.435C164.193 25.7847 163.785 26.5213 163.213 27.18C162.641 27.8387 161.939 28.3587 161.107 28.74C160.275 29.1213 159.348 29.312 158.325 29.312ZM167.674 29V15.896H170.794L171.132 18.314C171.444 17.742 171.834 17.2567 172.302 16.858C172.787 16.4593 173.333 16.1473 173.94 15.922C174.564 15.6967 175.249 15.584 175.994 15.584V19.302H174.798C174.278 19.302 173.793 19.3627 173.342 19.484C172.909 19.6053 172.527 19.8047 172.198 20.082C171.869 20.342 171.617 20.706 171.444 21.174C171.271 21.642 171.184 22.2313 171.184 22.942V29H167.674Z" fill="white"/>
</svg>
