<svg width="24" height="70" viewBox="0 0 24 70" fill="none" xmlns="http://www.w3.org/2000/svg">
<path d="M23.9211 14.0691C23.9211 15.8361 23.6117 17.5858 23.0106 19.2183C22.4095 20.8508 21.5285 22.3341 20.4179 23.5836C19.3073 24.8331 17.9887 25.8242 16.5376 26.5004C15.0865 27.1766 13.5312 27.5247 11.9605 27.5247C10.3898 27.5247 8.83455 27.1766 7.38343 26.5004C5.93231 25.8242 4.61379 24.8331 3.50316 23.5836C2.39252 22.3341 1.51151 20.8508 0.910441 19.2183C0.309368 17.5858 -1.37313e-07 15.8361 0 14.0691L11.9605 14.0691H23.9211Z" fill="#FFDC87"/>
<rect x="8.97021" y="27.5247" width="5.98026" height="20.9309" fill="#FFDC87"/>
<path d="M23.9211 58.9211C23.9211 57.5467 23.6117 56.1858 23.0106 54.9161C22.4095 53.6464 21.5285 52.4927 20.4179 51.5209C19.3073 50.549 17.9887 49.7782 16.5376 49.2522C15.0865 48.7263 13.5312 48.4556 11.9605 48.4556C10.3898 48.4556 8.83455 48.7263 7.38343 49.2522C5.93231 49.7782 4.61379 50.549 3.50316 51.5209C2.39252 52.4927 1.51151 53.6464 0.910441 54.9161C0.309368 56.1858 -1.37313e-07 57.5467 0 58.9211L11.9605 58.9211H23.9211Z" fill="#FFDC87"/>
</svg>
